<?xml version="1.0" encoding="UTF-8"?>
<svg version="1.1" xmlns="http://www.w3.org/2000/svg" width="225" height="225">
<path d="M0 0 C74.25 0 148.5 0 225 0 C225 74.25 225 148.5 225 225 C150.75 225 76.5 225 0 225 C0 150.75 0 76.5 0 0 Z " fill="#0254BB" transform="translate(0,0)"/>
<path d="M0 0 C74.25 0 148.5 0 225 0 C225 74.25 225 148.5 225 225 C150.75 225 76.5 225 0 225 C0 150.75 0 76.5 0 0 Z M77 12 C76.35305176 12.23525391 75.70610352 12.47050781 75.03955078 12.71289062 C47.8262426 22.81095438 26.97505597 44.16517064 14.72265625 70.06640625 C12.24884159 75.54308635 10.45468016 81.17407798 9 87 C8.7383606 87.90153809 8.7383606 87.90153809 8.47143555 88.82128906 C6.47267592 96.38706374 6.55912386 104.10346002 6.5625 111.875 C6.56176483 112.60854706 6.56102966 113.34209412 6.56027222 114.09786987 C6.59163396 126.01354399 7.68207653 136.81947112 12 148 C12.26232422 148.70350586 12.52464844 149.40701172 12.79492188 150.13183594 C23.65431377 178.68656786 44.71660796 198.14232026 71.671875 211.3046875 C96.37652818 221.99898367 126.04324601 221.80443907 151 212 C179.09134897 199.64606161 199.8955954 180.42013515 211.6875 151.61328125 C213.90396688 145.51140069 215.53630527 139.32625752 217 133 C217.3403125 131.61748047 217.3403125 131.61748047 217.6875 130.20703125 C223.1435961 105.16203458 216.10889811 79.87297483 204 58 C203.45601562 57.01257812 202.91203125 56.02515625 202.3515625 55.0078125 C190.26264177 34.66304346 170.22403011 20.37314984 148.375 12.125 C147.62395996 11.83858643 146.87291992 11.55217285 146.09912109 11.25708008 C125.06909396 3.71394737 97.89542792 4.14682314 77 12 Z " fill="#FDFEFE" transform="translate(0,0)"/>
<path d="M0 0 C7.62506621 -0.11725635 15.25003594 -0.20539051 22.87580585 -0.25906086 C26.41908024 -0.28485575 29.961726 -0.31967908 33.50463867 -0.37719727 C56.44475407 -0.73970028 78.76672318 -0.45662198 96.6875 15.875 C108.26490138 27.99975703 112.36266602 42.44453903 112.25 58.875 C112.26160156 60.55529297 112.26160156 60.55529297 112.2734375 62.26953125 C112.23632652 78.17158734 107.94345009 92.13221627 97 104 C82.27983929 117.61307341 63.90413968 121.17912107 44.53125 121.09765625 C42.61717346 121.09553383 42.61717346 121.09553383 40.66442871 121.09336853 C37.29761844 121.08874011 33.93087793 121.07977971 30.56408691 121.06866455 C27.11825152 121.0583733 23.67240888 121.0538545 20.2265625 121.04882812 C13.48435597 121.03783326 6.74218201 121.0211208 0 121 C0 119.02 0 117.04 0 115 C0.54269531 114.75765625 1.08539063 114.5153125 1.64453125 114.265625 C2.71767578 113.76289063 2.71767578 113.76289063 3.8125 113.25 C4.87404297 112.76273438 4.87404297 112.76273438 5.95703125 112.265625 C8.51130731 110.68324366 9.50890331 109.64371699 11 107 C11.29618788 103.96079553 11.42019789 101.12727039 11.40405273 98.08813477 C11.41434761 96.73868271 11.41434761 96.73868271 11.42485046 95.36196899 C11.44315092 92.3882875 11.43927627 89.41513197 11.43359375 86.44140625 C11.43815405 84.3740166 11.44345917 82.30662847 11.44947815 80.23924255 C11.45841569 75.90577029 11.45597884 71.57248225 11.44604492 67.23901367 C11.43455565 61.68593298 11.45476308 56.1334882 11.48396206 50.58049107 C11.50230928 46.31080588 11.50203451 42.04127348 11.49632454 37.77155876 C11.49617114 35.72423346 11.50223099 33.67689791 11.51461601 31.62961006 C11.52949576 28.76642103 11.51887094 25.9044119 11.50170898 23.04125977 C11.51137695 22.19590164 11.52104492 21.35054352 11.53100586 20.47956848 C11.48048773 16.45415529 11.30738914 14.48145893 9.08876038 11.00645447 C7.13289074 9.12765429 5.76991533 8.1082383 3.25 7.1875 C2.1775 6.795625 1.105 6.40375 0 6 C0 4.02 0 2.04 0 0 Z " fill="#FCFDFD" transform="translate(62,52)"/>
<path d="M0 0 C26.86244541 0 26.86244541 0 35.82421875 8.7890625 C37.40413462 10.78684025 38.72334457 12.79706461 40 15 C40.37769531 15.63292969 40.75539062 16.26585938 41.14453125 16.91796875 C51.20537756 36.39908315 49.33444773 66.43240004 44 87 C41.40259725 94.84001321 37.47890281 102.88118396 30 107 C20.12089107 111.32535417 10.95247048 111 0 111 C0 74.37 0 37.74 0 0 Z " fill="#0355BB" transform="translate(100,57)"/>
</svg>
